<?xml version="1.0" ?><svg data-name="Layer 1" id="Layer_1" viewBox="0 0 512 512" xmlns="http://www.w3.org/2000/svg" xmlns:xlink="http://www.w3.org/1999/xlink"><defs><style>.cls-1{fill:url(#linear-gradient);}.cls-2{fill:url(#linear-gradient-2);}</style><linearGradient gradientUnits="userSpaceOnUse" id="linear-gradient" x1="-1.322" x2="490.742" y1="513.322" y2="21.258"><stop offset="0" stop-color="#111"/><stop offset="1" stop-color="#323232"/></linearGradient><linearGradient gradientUnits="userSpaceOnUse" id="linear-gradient-2" x1="138.33" x2="380.873" y1="373.67" y2="131.127"><stop offset="0" stop-color="#059120"/><stop offset="1" stop-color="#00d028"/></linearGradient></defs><title/><path class="cls-1" d="M256,0C114.615,0,0,114.615,0,256S114.615,512,256,512,512,397.385,512,256,397.385,0,256,0Z"/><path class="cls-2" d="M346.525,162.743v-53.41H293.116l-.687.688a41.487,41.487,0,0,0-7.452,10.153L262.793,162.7l-8.261,5.352H165.717v73.16h49.122l4,5.744-53.366,102.3v53.41h53.409l.687-.688a41.5,41.5,0,0,0,7.451-10.152L249.207,349.3l8.261-5.352h88.815v-73.16H297.161l-4-5.744Z"/></svg>