<?xml version="1.0" ?><svg height="500" id="svg2" version="1.1" width="500" xmlns="http://www.w3.org/2000/svg" xmlns:cc="http://creativecommons.org/ns#" xmlns:dc="http://purl.org/dc/elements/1.1/" xmlns:inkscape="http://www.inkscape.org/namespaces/inkscape" xmlns:rdf="http://www.w3.org/1999/02/22-rdf-syntax-ns#" xmlns:sodipodi="http://sodipodi.sourceforge.net/DTD/sodipodi-0.dtd" xmlns:svg="http://www.w3.org/2000/svg"><defs id="defs4"/><g id="layer1" transform="translate(0,-552.36218)"><rect height="500" id="rect2990-1" rx="250" ry="250" style="fill:#ff5200;fill-opacity:1;stroke:none" width="500" x="0" y="552.36218"/><g id="layer1-9" transform="translate(-549.00515,80.294372)"/><g id="layer1-6" transform="translate(-575.71429,39.999999)"/><path d="m 286.25001,732.88719 c -8.88647,0 -17.53485,1.765 -25.175,4.725 -2.97947,1.14893 -3.77408,2.29562 -3.8,4.6 l 0,124.92499 c 0.0259,2.38876 1.90019,4.40334 4.25,4.65 0.10386,0.013 108.39895,0.05 109.09999,0.05 21.74555,0 39.375,-17.63594 39.375,-39.375 0,-21.73905 -17.63594,-39.325 -39.375,-39.325 -5.38769,0 -10.54483,1.09615 -15.225,3.05 -3.14175,-35.47445 -32.86415,-63.29999 -69.14999,-63.29999 z m -37.025,9.2 c -2.35631,0 -4.28604,1.94272 -4.325,4.325 0,0 -2.12782,68.52416 -1.775,88.67499 0.35281,20.15082 1.775,32.175 1.775,32.175 0.039,2.34333 1.96869,4.275 4.325,4.275 2.35631,0 4.28604,-1.93072 4.325,-4.3 0,0 1.74515,-21.40953 1.95,-32.15 0.5637,-29.55545 -1.95,-88.67499 -1.95,-88.67499 -0.0325,-2.38228 -1.96219,-4.325 -4.325,-4.325 z m -13.825,7.675 c -2.01763,0.20714 -3.61344,1.93159 -3.65,4.025 0,0 -1.93096,54.18688 -1.55,81.27499 0.15329,10.89923 1.55,32.64999 1.55,32.64999 0.039,2.20701 1.81798,4.05 4.025,4.05 2.19173,0 4.01564,-1.80432 4.075,-4.025 l 0,-0.025 c 0,0 1.5534,-21.73167 1.725,-32.625 0.42686,-27.09734 -1.725,-81.29998 -1.725,-81.29998 -0.0455,-2.23298 -1.87448,-4.025 -4.075,-4.025 -0.13794,0 -0.24049,-0.0138 -0.375,0 z m -39.8,9.325 c -1.75911,0 -3.1916,1.38895 -3.25,3.2 0,0 -2.28733,55.07034 -2,72.77499 0.28733,17.70466 2,33.375 2,33.375 0.0584,1.79156 1.49089,3.225 3.25,3.225 1.76561,0 3.1916,-1.42694 3.25,-3.225 0,0 1.94675,-15.66658 2.275,-33.375 0.32826,-17.70842 -2.275,-72.77499 -2.275,-72.77499 -0.0584,-1.81105 -1.48439,-3.2 -3.25,-3.2 z m 13.3,1.575 c -1.92788,0 -3.47956,1.52115 -3.525,3.47499 0,0 -2.20221,47.28346 -1.85,70.925 0.16453,11.04331 1.85,33.075 1.85,33.075 0.039,1.94086 1.59712,3.5 3.525,3.5 1.90623,0 3.45988,-1.53371 3.525,-3.475 l 0,-0.025 c 0,0 1.86694,-22.02787 2.05,-33.075 0.39177,-23.64284 -2.05,-70.925 -2.05,-70.925 -0.0519,-1.95384 -1.6101,-3.47499 -3.525,-3.47499 z m -26.475,1.05 c -1.61631,0 -2.9166,1.28829 -2.975,2.94999 0,0 -2.49469,53.05323 -2.2,70.4 0.2947,17.34676 2.2,33.6 2.2,33.6 0.052,1.63579 1.35869,2.95 2.975,2.95 1.58831,0 2.87224,-1.28886 2.95,-2.925 l 0,-0.025 c 0,0 2.26165,-22.3712 2.475,-33.6 0.44597,-23.47229 -2.475,-70.4 -2.475,-70.4 -0.0649,-1.66174 -1.35317,-2.94999 -2.95,-2.94999 z m 39.875,1.25 c -2.08368,0 -3.75456,1.68386 -3.8,3.79999 0,0 -2.01252,45.528 -1.7,68.3 0.15069,10.98041 1.725,32.89999 1.725,32.89999 0.039,2.07719 1.69132,3.72501 3.775,3.72501 2.0707,0 3.723,-1.65886 3.775,-3.775 0,0 1.73541,-21.88379 1.9,-32.85 0.34182,-22.77342 -1.9,-68.3 -1.9,-68.3 -0.0519,-2.10314 -1.7043,-3.79999 -3.775,-3.79999 z m -52.975,4.44999 c -1.44754,0 -2.61012,1.16904 -2.675,2.67499 0,0 -2.70659,43.30896 -2.35,64.97501 0.18664,11.33952 2.35,33.92499 2.35,33.92499 0.0649,1.48 1.23395,2.675 2.675,2.675 1.43264,0 2.6411,-1.16938 2.725,-2.65 l 0,-0.025 c 0,0 2.32031,-17.41747 2.625,-33.92499 0.30469,-16.50753 -2.625,-64.97501 -2.625,-64.97501 -0.0714,-1.50595 -1.27747,-2.67499 -2.725,-2.67499 z m -12.975,12.35 c -1.29175,0 -2.35356,1.05633 -2.425,2.4 0,0 -2.68742,38.34356 -2.5,52.875 0.18743,14.53144 2.5,34.17499 2.5,34.17499 0.0714,1.3307 1.13325,2.4 2.425,2.4 1.28526,0 2.35356,-1.05631 2.425,-2.4 0,0 2.65779,-22.74464 2.825,-34.17499 0.25815,-17.64636 -2.825,-52.875 -2.825,-52.875 -0.0714,-1.34367 -1.13974,-2.4 -2.425,-2.4 z m -25.65,18.375 c -0.99314,0 -1.79708,0.78544 -1.875,1.85 0,0 -2.86571,23.52318 -2.85,35.05 0.0157,11.52683 2.85,33.875 2.85,33.875 0.0779,1.05157 0.87535,1.825 1.875,1.825 0.97368,0 1.78412,-0.77342 1.875,-1.825 0,0 3.18256,-22.52789 3.2,-33.875 0.018,-11.72781 -3.2,-35.05 -3.2,-35.05 -0.0909,-1.06456 -0.90132,-1.85 -1.875,-1.85 z m -12.675,1.225 c -0.84385,0 -1.54061,0.66624 -1.625,1.575 0,0.0129 -2.99379,22.69075 -2.975,34.1 0.0181,10.99379 2.975,32.825 2.975,32.825 0.0844,0.91526 0.78115,1.575 1.625,1.575 0.83088,0 1.50263,-0.62922 1.6,-1.525 0,0 3.3548,-21.85917 3.375,-32.875 0.0209,-11.42217 -3.375,-34.1 -3.375,-34.1 -0.10386,-0.91525 -0.76912,-1.575 -1.6,-1.575 z m 25.45,1.05 c -1.15544,0 -2.07856,0.89912 -2.15,2.1 0,0 -2.65356,21.652 -2.675,32.525 -0.0225,11.41868 2.675,34.15 2.675,34.15 0.0714,1.22035 0.98808,2.125 2.15,2.125 1.1343,0 2.0544,-0.89924 2.15,-2.10001 l 0,-0.025 c 0,0 3.04972,-22.99452 3.025,-34.15 -0.0247,-11.15548 -3.025,-32.525 -3.025,-32.525 -0.0779,-1.20736 -1.00755,-2.1 -2.15,-2.1 z m -38.04999,4.575 c -0.67509,0 -1.22764,0.54149 -1.325,1.275 0,0.013 -3.16199,19.24067 -3.15,28.775 0.012,9.53432 3.15,28.1 3.15,28.1 0.0974,0.7465 0.67492,1.275 1.35,1.275 0.67508,0 1.23964,-0.51553 1.35,-1.275 0,0 3.5366,-18.65711 3.54999,-28.1 0.0137,-9.65843 -3.54999,-28.775 -3.54999,-28.775 -0.11036,-0.75947 -0.69992,-1.275 -1.375,-1.275 z m -11.800005,11 c -0.668599,0 -1.20912,0.5165 -1.3,1.25 0,0 -2.3318,11.87503 -2.325,17.8 0.0068,5.92497 2.325,17.45 2.325,17.45 0.09088,0.73351 0.637899,1.25 1.3,1.25 0.64912,0 1.17114,-0.52946 1.275,-1.25 0,0 2.766992,-11.55545 2.775,-17.45 0.0081,-5.99756 -2.775,-17.8 -2.775,-17.8 -0.09737,-0.7335 -0.62588,-1.25 -1.275,-1.25 z" id="rect2989-7" style="fill:#ffffff;fill-opacity:1;stroke:none"/></g></svg>