<?xml version="1.0" ?><!DOCTYPE svg  PUBLIC '-//W3C//DTD SVG 1.1//EN'  'http://www.w3.org/Graphics/SVG/1.1/DTD/svg11.dtd'><svg height="512px" style="enable-background:new 0 0 512 512;" version="1.1" viewBox="0 0 512 512" width="512px" xml:space="preserve" xmlns="http://www.w3.org/2000/svg" xmlns:xlink="http://www.w3.org/1999/xlink"><g id="_x31_1-wordpress_x2C__CMS"><g><g><path d="M256.002,16.75C124.441,16.75,17.397,124.083,17.397,256c0,131.915,107.044,239.25,238.605,239.25     c131.559,0,238.602-107.335,238.602-239.25C494.604,124.083,387.561,16.75,256.002,16.75L256.002,16.75z M256.002,46.662     c42.141,0,81.328,12.675,114.166,34.302c-11.422,6.361-22.01,19.769-22.01,48.234c0,15.136,10.289,32.687,22.189,53.02     c14.287,24.408,32.002,54.76,27.563,76.679c-4.895,14.509-17.297,47.437-30.75,82.574l-61.652-177.64     c1.254-0.33,2.656-0.539,3.846-0.93c7.82-2.601,12.023-11.062,9.426-18.895c-2.625-7.838-11.033-11.997-18.877-9.456     c-12.707,4.247-35.697,4.158-49.508,4.125h-8.293c-13.721,0.033-36.803,0.122-49.51-4.125c-7.73-2.633-16.195,1.618-18.821,9.456     c-2.624,7.833,1.61,16.294,9.424,18.895c6.295,2.123,13.719,3.264,21.299,4.097l36.684,95.64l-34.686,87.746l-59.265-185.898     c2.174-0.504,4.5-0.896,6.501-1.584c7.814-2.601,12.047-11.062,9.423-18.895c-2.621-7.838-11.03-12.089-18.845-9.456     c-12.68,4.247-35.732,4.125-49.542,4.125h-4.087c-2.687,0-4.895-0.209-7.158-0.384C121.126,83.022,184.391,46.662,256.002,46.662     L256.002,46.662z M47.224,256c0-23.508,4.055-46.055,11.212-67.172l91.505,247.178C88.586,399.49,47.224,332.589,47.224,256     L47.224,256z M196.619,456.607l60.365-152.758l58.576,152.73c-18.877,5.623-38.861,8.759-59.559,8.759     C235.361,465.339,215.461,462.203,196.619,456.607L196.619,456.607z M362.744,435.555     c19.326-49.674,52.613-135.717,62.602-164.813l0.389,0.121c0.418-1.193,0.863-2.752,1.162-4.578     c3.371-9.39,6.234-17.968,8.533-25.205c7.369-23.363,12.051-43.908,14.492-62.09c9.482,23.862,14.855,49.793,14.855,77.01     C464.777,332.289,423.738,398.982,362.744,435.555L362.744,435.555z M362.744,435.555" style="fill:#9A9A9A;"/></g></g></g><g id="Layer_1"/></svg>